<?xml version="1.0" encoding="iso-8859-1"?>
<!-- Generator: Adobe Illustrator 19.0.0, SVG Export Plug-In . SVG Version: 6.00 Build 0)  -->
<svg xmlns="http://www.w3.org/2000/svg" xmlns:xlink="http://www.w3.org/1999/xlink" version="1.1" id="Layer_1" x="0px" y="0px" viewBox="0 0 512 512" style="enable-background:new 0 0 512 512;" xml:space="preserve" width="512" height="512">
<g>
	<polygon style="fill:#F2F2FC;" points="95.161,438.052 21.213,512 0,490.787 73.948,416.839 102.373,409.627  "/>
	<polygon style="fill:#D8D8FC;" points="102.373,409.627 95.161,438.052 21.213,512 10.607,501.393  "/>
	<polygon style="fill:#FDBF00;" points="257.442,360.624 229.652,362.11 236.228,381.838 201.227,416.839 95.161,438.052    73.948,416.839 95.161,310.773 172.589,233.345 214.59,232.921 256.592,274.922 278.655,339.411  "/>
	<polygon style="fill:#FF9100;" points="256.592,274.922 278.655,339.411 257.442,360.624 229.652,362.11 236.228,381.838    201.227,416.839 95.161,438.052 84.555,427.445 246.835,265.165  "/>
	<polygon style="fill:#F2F2FC;" points="342.294,275.772 317.897,275.133 321.081,296.985 278.655,339.411 172.589,233.345    257.442,148.492 319.382,168.007 354.6,203.224 363.508,254.558  "/>
	<polygon style="fill:#D8D8FC;" points="342.294,275.772 317.897,275.133 321.081,296.985 278.655,339.411 225.622,286.378    331.688,180.312 354.6,203.224 363.508,254.558  "/>
	<g>
		
			<rect x="345.934" y="61.066" transform="matrix(0.7071 -0.7071 0.7071 0.7071 43.8953 318.1047)" style="fill:#D8D8FC;" width="120" height="90"/>
	</g>
	
		<rect x="399.344" y="61.976" transform="matrix(0.7071 0.7071 -0.7071 0.7071 209.8052 -262.5627)" style="fill:#A3A3D1;" width="45" height="120"/>
	
		<rect x="299.755" y="100.645" transform="matrix(0.7071 -0.7071 0.7071 0.7071 -25.684 289.284)" style="fill:#D8D8FC;" width="73.2" height="150"/>
	
		<rect x="326.271" y="164.662" transform="matrix(0.7071 -0.7071 0.7071 0.7071 -36.6675 315.8005)" style="fill:#A3A3D1;" width="73.2" height="75"/>
	<g>
		
			<rect x="348.508" y="43.492" transform="matrix(0.7071 -0.7071 0.7071 0.7071 1.4689 300.5311)" style="fill:#F2F2FC;" width="30" height="210"/>
	</g>
	
		<rect x="385.631" y="133.116" transform="matrix(0.7071 -0.7071 0.7071 0.7071 -13.908 337.6542)" style="fill:#D8D8FC;" width="30" height="105"/>
	<g>
		
			<rect x="433.36" y="-11.36" transform="matrix(0.7071 -0.7071 0.7071 0.7071 86.3217 335.6783)" style="fill:#F2F2FC;" width="30" height="150"/>
	</g>
	
		<rect x="437.377" y="75.156" transform="matrix(0.7071 0.7071 -0.7071 0.7071 202.8382 -309.3826)" style="fill:#D8D8FC;" width="75" height="30"/>
	<g>
		<g>
			<g>
				
					<rect x="284.868" y="209.558" transform="matrix(0.7071 -0.7071 0.7071 0.7071 -92.1707 286.5971)" style="fill:#D8D8FC;" width="30" height="90"/>
			</g>
		</g>
	</g>
	<g>
		
			<rect x="200.015" y="294.411" transform="matrix(0.7071 -0.7071 0.7071 0.7071 -177.0235 251.4499)" style="fill:#FFDA2D;" width="30" height="90"/>
	</g>
	
		<rect x="290.171" y="222.362" transform="matrix(0.7071 -0.7071 0.7071 0.7071 -94.3674 291.9004)" style="fill:#A3A3D1;" width="30" height="75"/>
	
		<rect x="182.818" y="329.715" transform="matrix(-0.7071 -0.7071 0.7071 -0.7071 132.3571 744.2532)" style="fill:#FDBF00;" width="75" height="30"/>
</g>















</svg>
