<?xml version="1.0" encoding="iso-8859-1"?>
<!-- Generator: Adobe Illustrator 19.0.0, SVG Export Plug-In . SVG Version: 6.00 Build 0)  -->
<svg version="1.1" id="Capa_1" xmlns="http://www.w3.org/2000/svg" xmlns:xlink="http://www.w3.org/1999/xlink" x="0px" y="0px"
	 viewBox="0 0 512 512" style="enable-background:new 0 0 512 512;" xml:space="preserve">
<g>
	<path style="fill:#6A6956;" d="M96.004,432c-0.839,0-1.691-0.133-2.531-0.412l-24.001-8c-2.013-0.671-3.677-2.114-4.625-4.012
		l-8-16c-1.976-3.952-0.374-8.758,3.577-10.733c3.951-1.977,8.758-0.374,10.733,3.577l6.519,13.036l20.857,6.952
		c4.191,1.397,6.456,5.928,5.06,10.12C102.475,429.88,99.354,432,96.004,432z"/>
	<path style="fill:#6A6956;" d="M88.003,463.999h-16c-2.122,0-4.156-0.843-5.657-2.343l-16-16c-3.124-3.125-3.124-8.189,0-11.314
		c3.125-3.123,8.189-3.123,11.314,0l13.656,13.657h12.687c4.418,0,8,3.582,8,8S92.421,463.999,88.003,463.999z"/>
	<path style="fill:#6A6956;" d="M64.002,512c-6.996,0-10.582-8.731-5.657-13.657l16-16c1.501-1.5,3.535-2.343,5.657-2.343h16
		c4.418,0,8,3.582,8,8s-3.582,8-8,8H83.316L69.66,509.657C68.097,511.218,66.05,512,64.002,512z"/>
	<path style="fill:#6A6956;" d="M160.004,432c-3.35,0-6.471-2.12-7.589-5.472c-1.396-4.192,0.868-8.723,5.06-10.12l20.857-6.952
		l6.519-13.036c1.976-3.952,6.78-5.552,10.733-3.577c3.951,1.976,5.553,6.781,3.577,10.733l-8,16
		c-0.948,1.897-2.612,3.341-4.625,4.012l-24.001,8C161.696,431.867,160.842,432,160.004,432z"/>
	<path style="fill:#6A6956;" d="M184.005,463.999h-16c-4.418,0-8-3.582-8-8s3.582-8,8-8h12.687l13.656-13.657
		c3.125-3.123,8.189-3.123,11.314,0c3.124,3.125,3.124,8.189,0,11.314l-16,16C188.162,463.156,186.128,463.999,184.005,463.999z"/>
	<path style="fill:#6A6956;" d="M192.006,512c-2.048,0-4.095-0.781-5.657-2.343L172.692,496h-12.687c-4.418,0-8-3.582-8-8
		s3.582-8,8-8h16c2.122,0,4.156,0.843,5.657,2.343l16,16C202.588,503.269,199.002,512,192.006,512z"/>
</g>
<path style="fill:#9C9B8E;" d="M128.004,399.997c-26.468,0-48.001,25.122-48.001,56.002S101.536,512,128.004,512
	s48.001-25.122,48.001-56.002S154.472,399.997,128.004,399.997z"/>
<path style="fill:#8B8A7B;" d="M128.004,367.996c-13.234,0-24.001,10.767-24.001,24.001c0,13.233,10.766,24.001,24.001,24.001
	c13.233,0,24.001-10.767,24.001-24.001C152.005,378.763,141.238,367.996,128.004,367.996z"/>
<path style="fill:#EEEEEC;" d="M392.415,116.841l-45.256-45.256c-3.124-3.123-8.188-3.125-11.314,0L154.819,252.61
	c-0.607,0.608-1.113,1.31-1.498,2.079l-22.048,44.094l-16.053,16.053c-9.356,9.357-9.356,24.584,0,33.942
	c4.533,4.533,10.56,7.03,16.971,7.03c6.411,0,12.438-2.497,16.972-7.03l16.053-16.053l44.095-22.048
	c0.769-0.384,1.471-0.891,2.079-1.499l181.025-181.024c1.5-1.5,2.343-3.535,2.343-5.657S393.915,118.341,392.415,116.841z"/>
<path style="fill:#DEDED9;" d="M392.415,116.841l-21.629-21.629L116.251,349.747c4.397,3.917,10.001,6.062,15.938,6.062
	c6.411,0,12.438-2.497,16.972-7.03l16.053-16.053l44.095-22.048c0.769-0.384,1.471-0.891,2.079-1.499l181.025-181.024
	c1.5-1.5,2.343-3.535,2.343-5.657S393.915,118.341,392.415,116.841z"/>
<path style="fill:#FDC572;" d="M192.437,214.991l-37.619,37.619c-0.607,0.608-1.113,1.31-1.498,2.079l-22.048,44.094l-16.053,16.053
	c-9.356,9.357-9.356,24.584,0,33.942c4.533,4.533,10.56,7.03,16.971,7.03c6.411,0,12.438-2.497,16.972-7.03l16.053-16.053
	l44.095-22.048c0.769-0.384,1.471-0.891,2.079-1.499l94.189-94.189L192.437,214.991L192.437,214.991z"/>
<path style="fill:#FCB74F;" d="M116.251,349.747c4.397,3.917,10.001,6.062,15.938,6.062c6.411,0,12.438-2.497,16.972-7.03
	l16.053-16.053l44.095-22.048c0.769-0.384,1.471-0.891,2.079-1.499l94.189-94.189h-54.571L116.251,349.747z"/>
<path style="fill:#AED45B;" d="M454.64,9.357c-12.477-12.476-32.777-12.476-45.256,0l-39.599,39.599
	c-1.5,1.5-2.343,3.535-2.343,5.657c0,2.122,0.843,4.157,2.343,5.657l33.942,33.942c1.563,1.562,3.609,2.343,5.657,2.343
	s4.095-0.781,5.657-2.343l39.599-39.599C467.118,42.136,467.118,21.835,454.64,9.357z"/>
<path style="fill:#9AC932;" d="M454.64,9.357c-2.763-2.763-5.912-4.911-9.272-6.451c5.411,11.814,3.262,26.27-6.45,35.984
	l-14.343,14.343c-3.124,3.124-8.19,3.124-11.314,0l-23.876-23.876l-19.462,19.462c-0.789,0.789-1.462,1.702-1.88,2.736
	c-1.257,3.108-0.476,6.497,1.743,8.715l33.942,33.942c1.563,1.562,3.609,2.343,5.657,2.343s4.095-0.781,5.657-2.343l39.599-39.599
	C467.118,42.136,467.118,21.835,454.64,9.357z"/>
<path style="fill:#AED45B;" d="M454.641,122.499L341.5,9.357c-3.125-3.124-8.189-3.124-11.314,0l-28.285,28.285
	c-3.08,3.08-3.08,8.233,0,11.313l113.141,113.141c3.083,3.082,8.231,3.082,11.314,0l28.285-28.285
	C457.721,130.732,457.721,125.579,454.641,122.499z"/>
<path style="fill:#9AC932;" d="M454.641,122.499l-14.069-14.069l-39.599,39.599l14.068,14.068c3.083,3.082,8.231,3.082,11.314,0
	l28.285-28.285C457.721,130.732,457.721,125.579,454.641,122.499z"/>
<g>
</g>
<g>
</g>
<g>
</g>
<g>
</g>
<g>
</g>
<g>
</g>
<g>
</g>
<g>
</g>
<g>
</g>
<g>
</g>
<g>
</g>
<g>
</g>
<g>
</g>
<g>
</g>
<g>
</g>
</svg>
