<?xml version="1.0" encoding="iso-8859-1"?>
<!-- Generator: Adobe Illustrator 19.0.0, SVG Export Plug-In . SVG Version: 6.00 Build 0)  -->
<svg version="1.1" id="Capa_1" xmlns="http://www.w3.org/2000/svg" xmlns:xlink="http://www.w3.org/1999/xlink" x="0px" y="0px"
	 viewBox="0 0 512 512" style="enable-background:new 0 0 512 512;" xml:space="preserve">
<path style="fill:#896748;" d="M376,30v182l-30,30l-30-30V30c0-16.5,13.5-30,30-30S376,13.5,376,30z"/>
<path style="fill:#73553A;" d="M376,212l-30,30V0c16.5,0,30,13.5,30,30V212z"/>
<rect x="316" y="212" style="fill:#E5E5E5;" width="60" height="90"/>
<rect x="346" y="212" style="fill:#D9D9D9;" width="30" height="90"/>
<path style="fill:#896748;" d="M512,317v15l-15,30H201.599L180,332v-15c0-24.901,20.099-45,45-45h242
	C491.901,272,512,292.099,512,317z"/>
<circle style="fill:#FCBF29;" cx="135" cy="377" r="15"/>
<g>
	<path style="fill:#FEDB41;" d="M105,242c-24.901,0-45,20.099-45,45c0,24.899,20.099,45,45,45s45-20.101,45-45
		C150,262.099,129.901,242,105,242z M105,302c-8.401,0-15-6.601-15-15c0-8.401,6.599-15,15-15s15,6.599,15,15
		C120,295.399,113.401,302,105,302z"/>
	<path style="fill:#FEDB41;" d="M90,407c0,8.399-6.599,15-15,15H60v15c0,8.399-6.599,15-15,15s-15-6.601-15-15v-15H15
		c-8.401,0-15-6.601-15-15c0-8.401,6.599-15,15-15h15v-15c0-8.401,6.599-15,15-15s15,6.599,15,15v15h15
		C83.401,392,90,398.599,90,407z"/>
</g>
<path style="fill:#73553A;" d="M512,317v15l-15,30H346v-90h121C491.901,272,512,292.099,512,317z"/>
<path style="fill:#FE9923;" d="M421,332l-45,180h60c41.4,0,76-33.6,76-75V332H421z"/>
<path style="fill:#FEDB41;" d="M421,332v92.699c0,30.901-12.599,60.901-34.501,82.8C383.8,510.5,379.9,512,376,512H241l45-180H421z"
	/>
<path style="fill:#FCBF29;" d="M421,332v92.699c0,30.901-12.599,60.901-34.501,82.8C383.8,510.5,379.9,512,376,512h-30V332H421z"/>
<path style="fill:#FEA832;" d="M180,332v99c0,21.599-11.7,39.901-26.1,56.1c-3.9,4.2-5.099,10.201-2.701,15.601
	C153.6,508.4,159,512,165,512h76c3.9,0,7.8-1.5,10.499-4.501C273.401,485.6,286,455.6,286,424.699V332
	C256.914,332,175.545,332,180,332z"/>
<g>
	<path style="fill:#FCBF29;" d="M90,407c0,8.399-6.599,15-15,15H60v15c0,8.399-6.599,15-15,15v-90c8.401,0,15,6.599,15,15v15h15
		C83.401,392,90,398.599,90,407z"/>
	<path style="fill:#FCBF29;" d="M150,287c0,24.899-20.099,45-45,45v-30c8.401,0,15-6.601,15-15c0-8.401-6.599-15-15-15v-30
		C129.901,242,150,262.099,150,287z"/>
</g>
<g>
</g>
<g>
</g>
<g>
</g>
<g>
</g>
<g>
</g>
<g>
</g>
<g>
</g>
<g>
</g>
<g>
</g>
<g>
</g>
<g>
</g>
<g>
</g>
<g>
</g>
<g>
</g>
<g>
</g>
</svg>
