<?xml version="1.0"?>
<svg xmlns="http://www.w3.org/2000/svg" viewBox="0 0 64 64" width="512" height="512"><g id="Research"><path d="M61,9V41H3V9A4,4,0,0,1,7,5H57A4,4,0,0,1,61,9Z" style="fill:#5aaae7"/><path d="M61,9V41H21L57,5A4,4,0,0,1,61,9Z" style="fill:#3d9ae2"/><path d="M38,19a4,4,0,1,1,0,8H32V19Z" style="fill:#ff9811"/><path d="M32,19v8H26a4,4,0,1,1,0-8Z" style="fill:#ff5023"/><path d="M43,58v3H21V58a1,1,0,0,1,1-1H42A1,1,0,0,1,43,58Z" style="fill:#57565c"/><polygon points="40 57 24 57 25 49 39 49 40 57" style="fill:#787680"/><path d="M61,41v4a4,4,0,0,1-4,4H7a4,4,0,0,1-4-4V41Z" style="fill:#898890"/><polygon points="39.25 51 24.75 51 25 49 39 49 39.25 51" style="fill:#57565c"/><rect x="18" y="60" width="28" height="2" style="fill:#3e3d42"/><rect x="55" y="44" width="2" height="2" style="fill:#57565c"/><path d="M43.707,15.707l-1.414-1.414,3-3A1,1,0,0,1,46,11h2v2H46.414Z" style="fill:#ebbf00"/><rect x="50" y="10" width="4" height="2" style="fill:#ffd422"/><rect x="50" y="14" width="4" height="2" style="fill:#ffd422"/><path d="M48,34H46a1,1,0,0,1-.707-.293l-3-3,1.414-1.414L46.414,32H48Z" style="fill:#ff9811"/><rect x="50" y="30" width="4" height="2" style="fill:#ffa733"/><rect x="50" y="34" width="4" height="2" style="fill:#ffa733"/><path d="M20.293,15.707,17.586,13H16V11h2a1,1,0,0,1,.707.293l3,3Z" style="fill:#00ccb3"/><rect x="10" y="10" width="4" height="2" style="fill:#00ccb3"/><rect x="10" y="14" width="4" height="2" style="fill:#00ccb3"/><path d="M18,34H16V32h1.586l2.707-2.707,1.414,1.414-3,3A1,1,0,0,1,18,34Z" style="fill:#ff5023"/><rect x="10" y="30" width="4" height="2" style="fill:#ff6243"/><rect x="10" y="34" width="4" height="2" style="fill:#ff6243"/></g></svg>
