<?xml version="1.0" encoding="iso-8859-1"?>
<!-- Generator: Adobe Illustrator 21.0.0, SVG Export Plug-In . SVG Version: 6.00 Build 0)  -->
<svg version="1.1" id="Capa_1" xmlns="http://www.w3.org/2000/svg" xmlns:xlink="http://www.w3.org/1999/xlink" x="0px" y="0px"
	 viewBox="0 0 512 512" style="enable-background:new 0 0 512 512;" xml:space="preserve">
<polygon style="fill:#CB671B;" points="481.549,448.214 235.984,428.197 256.001,512 481.549,512 "/>
<polygon style="fill:#FF9100;" points="30.451,448.214 30.451,512 256.001,512 256.001,428.197 "/>
<polygon style="fill:#8F562F;" points="481.549,63.785 235.984,43.768 256.001,448.214 481.549,448.214 "/>
<polygon style="fill:#CB671B;" points="30.451,63.785 30.451,448.214 256.001,448.214 256.001,43.768 "/>
<path style="fill:#EFE2DD;" d="M341.844,321.118c10.507,0,20.019-4.259,26.904-11.145c6.885-6.885,11.145-16.398,11.145-26.904
	c0-10.593-4.332-20.171-11.318-27.069c6.985-6.898,11.318-16.477,11.318-27.069c0-10.506-4.258-20.018-11.143-26.903l-0.003-0.003
	c-6.885-6.884-16.397-11.143-26.903-11.143c-19.289,0-35.214,14.356-37.701,32.965H256L235.984,256L256,288.153h48.142
	C306.63,306.761,322.555,321.118,341.844,321.118z"/>
<path style="fill:#FFF5F5;" d="M207.858,223.845c-2.487-18.608-18.412-32.965-37.701-32.965c-10.507,0-20.019,4.258-26.904,11.145
	c-6.885,6.885-11.145,16.398-11.145,26.904c0,10.592,4.332,20.171,11.318,27.069c-6.985,6.898-11.318,16.477-11.318,27.069
	c0,10.507,4.258,20.018,11.143,26.903l0.003,0.003c6.885,6.884,16.397,11.143,26.903,11.143c19.289,0,35.214-14.356,37.701-32.965
	h48.142v-64.308h-48.142V223.845z"/>
<polygon style="fill:#FF9100;" points="481.549,0 425.162,0 405.146,31.892 425.162,63.785 481.549,63.785 "/>
<polygon style="fill:#FFB655;" points="368.775,0 348.758,31.892 368.775,63.785 425.162,63.785 425.162,0 "/>
<polygon style="fill:#FF9100;" points="312.387,0 292.37,31.892 312.387,63.785 368.775,63.785 368.775,0 "/>
<polygon style="fill:#FFB655;" points="256.001,0 235.984,31.892 256.001,63.785 312.387,63.785 312.387,0 "/>
<polygon style="fill:#FF9100;" points="199.613,0 179.596,31.892 199.613,63.785 256.001,63.785 256.001,0 "/>
<polygon style="fill:#FFB655;" points="143.226,0 123.209,31.892 143.226,63.785 199.613,63.785 199.613,0 "/>
<polygon style="fill:#FF9100;" points="86.839,0 66.822,31.892 86.839,63.785 143.226,63.785 143.226,0 "/>
<rect x="30.451" style="fill:#FFB655;" width="56.383" height="63.785"/>
<g>
</g>
<g>
</g>
<g>
</g>
<g>
</g>
<g>
</g>
<g>
</g>
<g>
</g>
<g>
</g>
<g>
</g>
<g>
</g>
<g>
</g>
<g>
</g>
<g>
</g>
<g>
</g>
<g>
</g>
</svg>
