<?xml version="1.0" encoding="UTF-8"?>
<svg width="203px" height="50px" viewBox="0 0 203 50" version="1.1" xmlns="http://www.w3.org/2000/svg" xmlns:xlink="http://www.w3.org/1999/xlink">
    <!-- Generator: Sketch 47.1 (45422) - http://www.bohemiancoding.com/sketch -->
    <title>Group 2</title>
    <desc>Created with Sketch.</desc>
    <defs></defs>
    <g id="Page-1" stroke="none" stroke-width="1" fill="none" fill-rule="evenodd">
        <g id="rodape_premier_pet" transform="translate(-208.000000, -36.000000)">
            <g id="Group-2" transform="translate(208.000000, 36.000000)">
                <path d="M158.801944,22.0678322 C158.134158,23.172349 157.092413,23.722604 155.675373,23.722604 C154.924783,23.722604 154.263675,23.5716846 153.694722,23.2671745 C153.124434,22.9653356 152.731776,22.6755168 152.461991,22.4351141 C152.396548,19.4607987 152.578185,14.842396 152.616917,14.2467315 C152.655648,13.6497315 152.798554,12.7909597 153.256655,12.3502215 C153.716091,11.9081477 154.465346,11.5982953 155.632635,11.5982953 C156.411272,11.5982953 157.07238,11.7425369 157.613286,12.0323557 C158.155528,12.3221745 158.585581,12.7295235 158.906118,13.2530671 C159.225319,13.7766107 159.455038,14.397651 159.593937,15.1148523 C159.732836,15.8333893 159.802286,16.605349 159.802286,17.4334027 C159.802286,19.419396 159.469729,20.964651 158.801944,22.0678322 M163.34689,9.56956376 C162.623011,8.79760403 161.796293,8.23933557 160.8654,7.89342282 C159.934507,7.54884564 158.954199,7.37655705 157.925809,7.37655705 C156.480722,7.37655705 155.285387,7.64500671 154.341138,8.18324161 C153.395554,8.72147651 152.701058,9.25303356 152.256313,9.77657718 C152.089366,9.05937584 151.686024,8.54918792 151.047621,8.24467785 C150.406548,7.94150336 149.629246,7.76654362 148.711709,7.79058389 C147.694004,7.81595973 146.166111,8.08173826 146.166111,8.08173826 C146.166111,8.08173826 146.7364,14.5525772 146.7364,20.4704899 C146.7364,25.504255 146.553427,35.2312148 146.553427,35.2312148 C146.553427,35.2312148 148.535413,34.4338792 149.566474,33.9904698 C150.650957,33.5230201 151.552467,32.9006443 151.947796,32.4305235 C152.514078,31.7560604 152.568836,30.7330134 152.552809,29.3453557 L152.498051,26.2121074 C152.552809,26.2949128 152.658319,26.3990872 152.88136,26.6207919 C153.103064,26.8411611 153.423601,27.0615302 153.840299,27.2818993 C154.256997,27.503604 154.764514,27.702604 155.361514,27.882906 C155.95985,28.0618725 156.661024,28.1513557 157.467709,28.1513557 C158.411957,28.1513557 159.377574,27.985745 160.364561,27.6545235 C161.351548,27.323302 162.241038,26.7516779 163.033031,25.9369799 C163.82636,25.1236174 164.472776,24.0191007 164.972279,22.6261007 C165.473118,21.2331007 165.72287,19.4607987 165.72287,17.3091946 C165.72287,15.4607651 165.507843,13.9008188 165.076454,12.6320268 C164.645064,11.3632349 164.068098,10.3428591 163.34689,9.56956376" id="Fill-118" fill="#F16522"></path>
                <path d="M12.7748087,20.161706 C11.7036812,20.9590416 10.0515805,21.3583772 8.60782886,21.3583772 L7.38444631,21.3583772 C7.39112416,17.3837195 7.49262752,13.8284309 7.59145973,11.2788268 C7.96942617,11.2414309 8.88696309,11.1612966 9.58680201,11.1612966 C10.771453,11.1612966 11.8799765,11.5245718 12.8803188,12.2511221 C13.8806611,12.9790081 14.6726544,14.3426255 14.6726544,16.048149 C14.6726544,18.0915718 13.8459362,19.3643705 12.7748087,20.161706 M17.6897081,9.03907517 C15.709057,7.53922953 13.2075336,6.78863893 8.89497651,6.78863893 C7.7784396,6.78863893 6.72868121,6.8260349 5.35037248,6.8981557 C3.97072819,6.97161208 1.62413087,7.08112886 0.304587248,7.22537047 C0.304587248,7.22537047 0.59307047,8.72521611 0.689231544,11.1826658 C0.79340604,13.8284309 0.900251678,17.584055 0.900251678,21.7737396 C0.900251678,26.1130081 0.785392617,29.9861624 0.67854698,32.6439477 C0.586392617,34.934451 0.315271812,36.2419745 0.315271812,36.2419745 L2.52831208,36.2419745 L6.76474161,36.2419745 L7.9680906,36.2419745 C7.9680906,36.2419745 7.69830537,34.934451 7.60615101,32.6439477 C7.53536577,30.8636322 7.46057383,28.5330617 7.41783557,25.8846255 L7.41783557,25.8792832 L9.29030537,25.8792832 C10.9036745,25.8792832 12.4435872,25.7056591 13.8966879,25.3557396 C15.348453,25.0058201 16.3648221,24.4729275 17.4653322,23.6702497 C18.5658423,22.870243 19.4433121,21.7737396 20.0897282,20.463545 C20.7334732,19.1520148 21.0580168,17.5506658 21.0580168,15.6568268 C21.0580168,12.7452832 19.6703591,10.5389208 17.6897081,9.03907517" id="Fill-119" fill="#F16522"></path>
                <path d="M35.5681886,17.458645 C35.5681886,17.0593094 35.548155,15.8305846 33.6877054,15.4352557 C31.9928664,15.0759872 30.884343,15.9013698 30.430249,16.2726584 C29.5180544,17.0179067 29.1173832,17.7284302 28.9450946,17.9861953 C28.7714705,17.2436181 28.3467591,16.5624772 27.6709604,16.2058799 C26.9964973,15.847947 26.1964906,15.7571282 25.2776181,15.801202 C24.1490611,15.8546248 22.5330208,16.2539604 22.5330208,16.2539604 C22.5330208,16.2539604 22.650551,17.0312624 22.8081483,19.4700141 C22.9296852,21.3438195 22.9430409,26.4563832 22.9430409,26.4563832 C22.9430409,26.4563832 22.9911215,30.0998195 22.8188329,32.896504 C22.6425376,35.7613027 22.5503832,36.2287523 22.5503832,36.2287523 L29.5567859,36.2287523 C29.5567859,36.2287523 29.3631282,35.1683094 29.2068664,32.943249 C29.0519403,30.7181886 29.093343,29.1916315 29.0973497,26.4577188 C29.1013564,23.7224705 29.0733094,22.3067658 29.9360879,21.2957389 C30.5971953,20.5211081 31.4733295,20.1231081 32.9250946,20.6560007 C33.5541483,20.8870544 34.0443027,21.3985779 34.0443027,21.3985779 C34.0443027,21.3985779 34.5504839,20.6653497 34.9337926,19.7985644 C35.2583362,19.0653362 35.5681886,18.0583161 35.5681886,17.458645" id="Fill-120" fill="#F16522"></path>
                <path d="M41.8175899,24.2218403 C41.8175899,22.7660685 42.1514826,21.4345047 42.8753617,20.6198067 C43.5979054,19.8064443 44.6182812,19.269545 45.8830664,19.269545 C47.3281537,19.269545 48.5034557,19.8545248 49.0603886,20.7119611 C49.6173215,21.5680617 49.8403617,22.5243302 49.8403617,23.8946255 L41.8175899,24.2218403 Z M53.5318785,18.3052631 C51.6994758,16.4221087 49.2901067,15.3469745 46.0192946,15.3736859 C44.7237913,15.3830349 43.459006,15.5726859 42.2249389,15.973357 C40.9895362,16.3726926 39.8823483,17.0004107 38.9047107,17.8565114 C37.9257376,18.7126121 36.9374154,19.791753 36.3497644,21.0899275 C35.763449,22.3894376 35.4095228,23.9787664 35.4095228,25.7777799 C35.4095228,27.9761289 35.800845,29.7564443 36.4632879,31.1975248 C37.1243953,32.6386054 38.1968584,33.7885315 39.2653148,34.6446322 C40.3337711,35.5007329 41.553147,36.100404 42.9247779,36.4436456 C44.2937376,36.7855517 45.6867376,36.9565047 47.1037779,36.9565047 C48.6677309,36.9565047 50.0313483,36.7922295 51.1906235,36.4650148 C52.3498987,36.1364644 53.2460664,35.7438067 53.8777913,35.2870416 C54.631053,34.772847 55.0076839,34.2025584 55.0076839,33.5735047 C55.0076839,33.1461221 54.811355,32.5958671 54.4200329,31.9254107 C54.0287107,31.2549544 53.6520799,30.7046993 53.2914758,30.2759812 C53.020355,30.5056993 52.7185161,30.755451 52.3872946,31.0252362 C52.0560732,31.2976926 51.664751,31.5474443 51.2133282,31.7758268 C50.7619054,32.0042094 50.2490463,32.1965315 49.6774221,32.3527933 C49.105798,32.5103906 48.4420195,32.5891893 47.6900933,32.5891893 C45.732147,32.5891893 44.301751,32.0683168 43.3989054,31.0252362 C42.4960597,29.9834913 41.9832007,29.0045181 41.8629993,27.4338872 L55.3482544,27.1080081 C55.3482544,27.1080081 55.6153685,25.6161758 55.6153685,24.4796054 C55.6153685,21.6842564 55.038402,19.8545248 53.5318785,18.3052631 L53.5318785,18.3052631 Z" id="Fill-121" fill="#F16522"></path>
                <path d="M106.243907,24.2218403 C106.243907,22.7660685 106.577799,21.4345047 107.301679,20.6198067 C108.024222,19.8064443 109.044598,19.269545 110.309383,19.269545 C111.75447,19.269545 112.928437,19.8545248 113.486705,20.7119611 C114.043638,21.5680617 114.266679,22.5243302 114.266679,23.8946255 L106.243907,24.2218403 Z M117.958195,18.3052631 C116.125793,16.4221087 113.716423,15.3469745 110.445611,15.3736859 C109.150108,15.3830349 107.885323,15.5726859 106.651256,15.973357 C105.415853,16.3726926 104.308665,17.0004107 103.331028,17.8565114 C102.350719,18.7126121 101.363732,19.791753 100.776081,21.0899275 C100.189766,22.3894376 99.8358396,23.9787664 99.8358396,25.7777799 C99.8358396,27.9761289 100.227162,29.7564443 100.889605,31.1975248 C101.550712,32.6386054 102.623175,33.7885315 103.691632,34.6446322 C104.760088,35.5007329 105.979464,36.100404 107.351095,36.4436456 C108.720054,36.7855517 110.113054,36.9565047 111.528759,36.9565047 C113.094048,36.9565047 114.457665,36.7922295 115.61694,36.4650148 C116.776215,36.1364644 117.672383,35.7438067 118.304108,35.2870416 C119.05737,34.772847 119.432665,34.2025584 119.432665,33.5735047 C119.432665,33.1461221 119.237672,32.5958671 118.84635,31.9254107 C118.455028,31.2549544 118.078397,30.7046993 117.716457,30.2759812 C117.446672,30.5056993 117.144833,30.755451 116.813611,31.0252362 C116.48239,31.2976926 116.091068,31.5474443 115.639645,31.7758268 C115.188222,32.0042094 114.675363,32.1965315 114.103739,32.3527933 C113.532115,32.5103906 112.868336,32.5891893 112.11641,32.5891893 C110.158464,32.5891893 108.728068,32.0683168 107.825222,31.0252362 C106.921041,29.9834913 106.409517,29.0045181 106.289316,27.4338872 L119.774571,27.1080081 C119.774571,27.1080081 120.041685,25.6161758 120.041685,24.4796054 C120.041685,21.6842564 119.464719,19.8545248 117.958195,18.3052631 L117.958195,18.3052631 Z" id="Fill-122" fill="#F16522"></path>
                <path d="M87.6809463,27.1193604 C87.6809463,27.1193604 87.7103289,22.6545483 87.7103289,21.8825886 C87.7103289,19.692253 87.106651,17.919951 85.8231678,16.7753671 C84.861557,15.9165953 82.9637114,15.3730181 81.0925772,15.3730181 C78.4054094,15.3730181 77.0244295,16.1129242 75.0825101,18.1523403 C74.7085503,17.3803805 74.1596309,16.7660181 73.3355839,16.2291188 C72.5168792,15.6975617 71.3429128,15.3730181 69.7322148,15.3730181 C68.0066577,15.3730181 67.2614094,15.6361255 66.3305168,16.1543268 C65.3248322,16.7125953 64.6450268,17.3296289 64.1562081,17.985394 C63.6607114,16.2184342 62.5041074,15.7403 60.496745,15.8004007 C59.2907248,15.8377966 57.7441342,16.2531591 57.7441342,16.2531591 C57.7441342,16.2531591 57.9017315,17.8865617 58.0286107,19.4985953 C58.1675101,21.2708973 58.1995638,24.5230114 58.1608322,27.0085081 C58.1234362,29.4926691 58.0740201,31.4679779 58.0392953,32.9117295 C58.0032349,34.3568168 57.7695101,36.2292866 57.7695101,36.2292866 L64.7678993,36.2292866 C64.7678993,36.2292866 64.4700671,34.3821926 64.4179799,32.9371054 C64.3658926,31.4933537 64.3017852,27.1153537 64.3017852,27.1153537 C64.3017852,27.1153537 64.3151409,25.5300315 64.3632215,23.6802664 C64.4099664,21.8305013 65.443698,20.4254812 67.0370336,20.4254812 C68.8721074,20.4254812 69.9245369,21.2602128 69.9245369,22.5263336 L69.9672752,27.1153537 C69.9672752,27.1153537 69.9512483,31.1220651 69.8457383,32.9117295 C69.7388926,34.7027295 69.5746174,36.2292866 69.5746174,36.2292866 L76.6210872,36.2292866 C76.6210872,36.2292866 76.3005503,34.2139107 76.2431208,32.8569711 C76.1603154,30.9070383 76.1683289,27.2382262 76.1683289,27.2382262 L76.1790134,24.3787698 C76.2244228,22.1523738 76.9362819,20.4147966 78.8822081,20.4147966 C80.2805503,20.4147966 81.4611946,21.1092933 81.4611946,22.5316758 C81.4611946,22.5316758 81.5146174,24.8943 81.5146174,27.1153537 C81.5146174,29.3364074 81.4531812,31.252951 81.410443,32.8957027 C81.3650336,34.6279376 81.1219597,36.2292866 81.1219597,36.2292866 L88.1684295,36.2292866 C88.1684295,36.2292866 87.9053221,34.6907094 87.7958054,32.8983738 C87.7236846,31.725743 87.6809463,28.3681188 87.6809463,27.1193604" id="Fill-123" fill="#F16522"></path>
                <path d="M97.1675034,27.1193604 C97.1675034,25.2428839 97.5414631,19.2127832 97.5414631,19.2127832 C97.5414631,18.4995886 97.473349,17.9212866 97.2436309,17.4778772 C97.0125772,17.0358034 95.8840201,15.6428034 93.4986913,15.7910517 C92.3808188,15.8605013 90.698,16.2170987 90.6405705,16.2451456 C90.6405705,16.2451456 90.8756309,17.7663604 90.9277181,19.5266423 C90.9784698,21.2869242 91.0612752,22.7840987 91.0612752,27.1153537 C91.0612752,29.7878302 90.9116913,32.8836826 90.9116913,32.8836826 C90.7888188,34.6599913 91.2162013,35.4800315 91.9213826,35.9501523 C92.6265638,36.4216087 93.8739866,36.5257832 94.9958658,36.5257832 C95.455302,36.5257832 97.5401275,36.4122597 97.6549866,36.3548302 C97.6549866,36.3548302 97.4199262,34.7681725 97.2810268,33.0145685 C97.1501409,31.3451054 97.1675034,30.2325752 97.1675034,27.1193604" id="Fill-124" fill="#F16522"></path>
                <path d="M201.810251,23.9304188 C201.587211,23.488345 201.268009,22.9648013 200.851311,22.3571168 C200.76717,22.4399221 200.628271,22.5654658 200.434613,22.7310765 C200.23962,22.8953517 199.996546,23.0542846 199.704056,23.2065396 C199.412902,23.3574591 199.092365,23.4963584 198.746452,23.6205664 C198.397868,23.7434389 198.029251,23.8062107 197.6406,23.8062107 C196.056613,23.8062107 195.422217,22.8793248 195.26462,20.9093584 C195.26462,20.9093584 195.124385,19.1637678 195.124385,16.1533919 C195.124385,13.1443517 195.269962,12.135996 195.269962,12.135996 C195.269962,12.135996 197.677996,12.1894188 198.84662,12.051855 C200.318419,11.880902 200.468003,7.83145235 200.468003,7.83145235 L195.269962,7.83145235 L195.269962,4.9346 C195.269962,4.24544564 195.157774,3.68717718 194.93607,3.25845906 C194.71303,2.83107651 194.42054,2.49317718 194.059936,2.24476107 C193.699332,1.99634497 193.295989,1.83073423 192.851244,1.74792886 C192.406499,1.66512349 191.814842,1.62372081 191.371432,1.62372081 C191.148392,1.62372081 190.926687,1.63173423 190.703647,1.64375436 C190.480607,1.65844564 190.273593,1.67981477 190.0786,1.70652617 L188.900627,1.80001611 C188.900627,1.80001611 189.321332,4.46314362 189.321332,7.83145235 C189.321332,7.83145235 187.991103,7.79138523 187.991103,8.01576107 C187.991103,8.94264698 188.537352,11.2972577 188.812479,12.0051101 C188.879258,12.1800698 189.321332,12.1400027 189.321332,12.1400027 C189.321332,12.1400027 189.453553,13.8815866 189.453553,16.1533919 L189.453553,20.9921638 C189.453553,21.5985128 189.4816,22.2061973 189.537694,22.8125463 C189.592452,23.4202309 189.71666,23.9998685 189.911654,24.5514591 C190.30164,25.6279289 190.96809,26.4960497 191.913674,27.1584926 C192.857922,27.8209356 194.206848,28.152157 195.957781,28.152157 C196.847271,28.152157 197.665976,28.0613383 198.416566,27.8823718 C199.167157,27.7020698 199.806895,27.468345 200.335781,27.1785262 C200.863332,26.8887074 201.413587,26.5735128 201.706077,26.2276 C201.997231,25.8816872 202.144144,25.5304322 202.144144,25.1711638 C202.144144,24.7851839 202.031956,24.3724926 201.810251,23.9304188" id="Fill-125" fill="#F16522"></path>
                <path d="M92.166994,14.1378826 C92.9977188,14.5024933 93.8938866,14.571943 94.850155,14.3422248 C95.8037523,14.1138423 96.5570141,13.6650906 97.0965846,12.9919631 C97.7269738,12.2453792 97.9366584,11.4146544 97.7176248,10.5024597 C97.4919134,9.56488926 96.9550141,8.91713758 96.1162758,8.56187584 C95.2695242,8.21195638 94.3720208,8.1518557 93.4184235,8.38023826 C92.462155,8.60995638 91.6955376,9.07874161 91.1199067,9.77991611 C90.5456114,10.4904396 90.3653094,11.2957886 90.5856785,12.2159966 C90.8047121,13.1268557 91.3322624,13.7652584 92.166994,14.1378826" id="Fill-126" fill="#F16522"></path>
                <path d="M199.161281,3.34313423 C199.623388,3.34313423 199.854442,3.15348322 199.854442,2.77551678 C199.854442,2.6072349 199.793005,2.47902013 199.672804,2.39220805 C199.551267,2.30539597 199.354938,2.26132215 199.081146,2.26132215 C198.984985,2.26132215 198.900844,2.26265772 198.831395,2.26532886 C198.761945,2.268 198.697838,2.27467785 198.637737,2.28536242 L198.655099,2.28536242 L198.655099,3.34313423 L199.161281,3.34313423 Z M198.147583,1.85530872 C198.297166,1.84061745 198.460106,1.82859732 198.63373,1.82058389 C198.80869,1.81257047 198.948925,1.80989933 199.057106,1.80989933 C199.528562,1.80989933 199.867797,1.90071812 200.074811,2.0823557 C200.281824,2.26265772 200.385999,2.49237584 200.385999,2.76750336 C200.385999,2.9010604 200.363294,3.02259732 200.320556,3.13211409 C200.277817,3.24163087 200.221723,3.33645638 200.152274,3.4165906 C200.081489,3.49538926 200.000019,3.56216779 199.906529,3.6155906 C199.811703,3.66901342 199.716878,3.70507383 199.620717,3.72644295 L199.635408,3.72644295 L200.466133,5.03797315 C200.416717,5.06334899 200.367301,5.08071141 200.316549,5.09139597 C200.265797,5.10074497 200.219052,5.10608725 200.176314,5.10608725 C200.094844,5.10608725 200.018717,5.0900604 199.946596,5.05667114 C199.874475,5.02328188 199.810368,4.96318121 199.756945,4.87636913 L199.073133,3.79589262 L198.655099,3.79589262 L198.655099,5.06869128 L198.147583,5.06869128 L198.147583,1.85530872 Z M198.21169,5.56685906 C198.485482,5.68973154 198.79667,5.75116779 199.145254,5.75116779 C199.495173,5.75116779 199.80369,5.6870604 200.074811,5.56285235 C200.345932,5.43730872 200.574314,5.27169799 200.759958,5.06468456 C200.944267,4.85767114 201.085838,4.61726846 201.181999,4.34347651 C201.27816,4.06968456 201.327576,3.78520805 201.327576,3.48871141 C201.327576,3.19221477 201.27816,2.90907383 201.181999,2.63795302 C201.085838,2.36683221 200.944267,2.1277651 200.759958,1.92075168 C200.574314,1.71373826 200.345932,1.54946309 200.074811,1.42525503 C199.80369,1.30371812 199.495173,1.24228188 199.145254,1.24228188 C198.79667,1.24228188 198.488153,1.30371812 198.219703,1.42525503 C197.951254,1.54946309 197.724207,1.71373826 197.538562,1.92075168 C197.354254,2.1277651 197.214019,2.36683221 197.116522,2.63795302 C197.019026,2.90907383 196.972281,3.19221477 196.972281,3.48871141 C196.972281,3.94948322 197.077791,4.3621745 197.290146,4.72678523 C197.501166,5.09273154 197.809683,5.37186577 198.21169,5.56685906 L198.21169,5.56685906 Z M197.164603,5.39056376 C196.938891,5.14481879 196.766603,4.85900671 196.646401,4.53179195 C196.524864,4.20457718 196.464764,3.85599329 196.464764,3.48871141 C196.464764,3.12009396 196.5262,2.77418121 196.650408,2.44963758 C196.773281,2.12509396 196.949576,1.84061745 197.18063,1.59887919 C197.411683,1.35580537 197.692153,1.16348322 198.022039,1.01924161 C198.351925,0.87633557 198.72722,0.805550336 199.145254,0.805550336 C199.564623,0.805550336 199.938583,0.87633557 200.268468,1.01924161 C200.598354,1.16348322 200.877489,1.35580537 201.105871,1.59887919 C201.332918,1.84061745 201.509213,2.12509396 201.633421,2.44963758 C201.756294,2.77418121 201.81773,3.12009396 201.81773,3.48871141 C201.81773,3.85599329 201.756294,4.20457718 201.633421,4.53179195 C201.509213,4.85900671 201.331583,5.14481879 201.101864,5.39056376 C200.870811,5.63497315 200.590341,5.82996644 200.260455,5.97287248 C199.930569,6.11577852 199.555274,6.18789933 199.13724,6.18789933 C198.717871,6.18789933 198.342576,6.11577852 198.010019,5.97287248 C197.677462,5.82996644 197.395656,5.63497315 197.164603,5.39056376 L197.164603,5.39056376 Z" id="Fill-127" fill="#F16522"></path>
                <path d="M173.84808,15.9032396 C173.84808,14.4955483 174.171288,13.2080584 174.869791,12.422743 C175.568295,11.6360919 176.553946,11.1178906 177.775993,11.1178906 C179.172999,11.1178906 180.308234,11.6828369 180.847805,12.5108906 C181.38604,13.3389443 181.601066,14.2618235 181.601066,15.5867094 L173.84808,15.9032396 Z M185.168375,10.1856624 C183.397409,8.36527987 181.068174,7.32620604 177.908214,7.35158188 C176.656785,7.36093087 175.433402,7.5452396 174.240738,7.93121946 C173.046738,8.31719933 171.978281,8.92354832 171.032697,9.75160201 C170.087113,10.5796557 169.132181,11.6214007 168.564563,12.8768369 C167.996946,14.1322732 167.65504,15.6681792 167.65504,17.4057564 C167.65504,19.530649 168.033006,21.2508638 168.672744,22.6425282 C169.312483,24.0368638 170.34755,25.1467228 171.381281,25.9747765 C172.413677,26.8028302 173.592986,27.3824678 174.917872,27.7136893 C176.241422,28.0435752 177.586342,28.2091859 178.955301,28.2091859 C180.468503,28.2091859 181.785375,28.050253 182.905919,27.7337228 C184.025127,27.4171926 184.891912,27.036555 185.502268,26.5958168 C186.230154,26.0989846 186.593429,25.547394 186.593429,24.941045 C186.593429,24.5270181 186.403778,23.9954611 186.027147,23.3477094 C185.647845,22.6986221 185.28457,22.1670651 184.93465,21.7530383 C184.672879,21.974743 184.381724,22.2164812 184.062523,22.478253 C183.741986,22.7400248 183.364019,22.9817631 182.927288,23.2021322 C182.490556,23.4225013 181.996395,23.6094812 181.443469,23.7604007 C180.890543,23.9126557 180.249469,23.9887832 179.522919,23.9887832 C177.630415,23.9887832 176.2481,23.4852732 175.375972,22.478253 C174.502509,21.4712329 174.007013,20.5243134 173.892154,19.0071054 L186.923315,18.6905752 C186.923315,18.6905752 187.18108,17.2508302 187.18108,16.1529913 C187.18108,13.4511322 186.624147,11.6828369 185.168375,10.1856624 L185.168375,10.1856624 Z" id="Fill-128" fill="#F16522"></path>
                <path d="M128.938855,21.3577094 C128.945533,17.3843872 129.047036,13.8290987 129.145868,11.2781591 C129.523835,11.2420987 130.441372,11.1606289 131.139875,11.1606289 C132.325862,11.1606289 133.43305,11.523904 134.434728,12.2517899 C135.433734,12.9796758 136.227063,14.3432933 136.227063,16.0488168 C136.227063,18.090904 135.399009,19.3637027 134.327882,20.1610383 C133.256754,20.9583738 131.605989,21.3577094 130.162238,21.3577094 L128.938855,21.3577094 Z M144.780056,35.1100785 C143.867862,34.0189174 142.588385,32.4536289 141.521264,31.0606289 C140.454144,29.6662933 138.942278,27.2035013 138.942278,27.2035013 L137.378325,24.676602 C137.947278,24.4001389 138.473493,24.0689174 139.019741,23.6709174 C140.120251,22.8709107 140.996385,21.7744074 141.642801,20.4628772 C142.287882,19.1526826 142.61109,17.5513336 142.61109,15.6574946 C142.61109,12.745951 141.224768,10.5395886 139.244117,9.03840738 C137.263466,7.53856174 134.760607,6.78930671 130.44805,6.78930671 C129.332848,6.78930671 128.28309,6.82670268 126.904781,6.89882349 C125.525137,6.9709443 123.17854,7.08046107 121.85766,7.22603826 C121.85766,7.22603826 122.147479,8.72588389 122.24364,11.1833336 C122.346479,13.8290987 122.45466,17.5833872 122.45466,21.7744074 C122.45466,26.1136758 122.339801,29.9868302 122.232956,32.6432799 C122.139466,34.9351188 121.869681,36.2413067 121.869681,36.2413067 L124.081385,36.2413067 L128.31915,36.2413067 L129.522499,36.2413067 C129.522499,36.2413067 129.252714,34.9351188 129.16056,32.6432799 C129.088439,30.8629644 129.013647,28.532394 128.970909,25.8852933 L128.970909,25.879951 L130.469419,25.879951 L130.844714,25.879951 C130.891459,25.879951 130.936868,25.8759443 130.983613,25.8759443 L135.643419,33.7451255 C136.247097,34.7721792 136.906868,35.5160919 137.626741,35.9715215 C138.345278,36.4282866 139.237439,36.6580047 140.301889,36.6580047 C142.759338,36.6580047 145.299593,35.7190987 145.299593,35.7190987 C145.299593,35.7190987 144.956352,35.3210987 144.780056,35.1100785 L144.780056,35.1100785 Z" id="Fill-129" fill="#F16522"></path>
                <path d="M2.99936779,44.115296 L2.1392604,46.8104772 L3.83142819,46.8104772 L2.99936779,44.115296 Z M4.61674362,49.3066584 L4.07717315,47.7560611 L1.89351544,47.7560611 L1.37264295,49.3066584 L0.0864885906,49.3066584 L2.28083087,43.0655376 C2.35695839,43.0348195 2.46246846,43.0041013 2.59736107,42.9760544 C2.73358926,42.9480074 2.87916644,42.9333161 3.03676376,42.9333161 C3.10621342,42.9333161 3.18367651,42.939994 3.26915302,42.9520141 C3.35462953,42.9653698 3.4374349,42.9920812 3.52024027,43.0321483 C3.60171007,43.073551 3.67917315,43.1323161 3.75129396,43.2071081 C3.82341477,43.2832356 3.88217987,43.3874101 3.92625369,43.5196315 L5.95899195,49.3066584 L4.61674362,49.3066584 Z" id="Fill-130" fill="#B6ACA7"></path>
                <path d="M10.5601658,48.2569 L12.403253,48.2569 C12.5555081,48.2569 12.6810517,48.275598 12.782555,48.312994 C12.8827228,48.3517255 12.9615215,48.4011416 13.018951,48.465249 C13.075045,48.5280208 13.1151121,48.6001416 13.1364812,48.682947 C13.1591859,48.7644168 13.1698705,48.8458866 13.1698705,48.9286919 C13.1698705,48.9914638 13.1685349,49.0662557 13.1645282,49.1557389 C13.161857,49.2438866 13.1565148,49.2933027 13.1511725,49.3066584 L9.25531342,49.3066584 L9.25531342,42.9800611 C9.34346107,42.9680409 9.43027315,42.9573564 9.51574966,42.9480074 C9.5998906,42.9386584 9.66533356,42.9333161 9.70940738,42.9333161 C9.80423289,42.9333161 9.89905839,42.9426651 9.9978906,42.9613631 C10.0953872,42.9800611 10.186206,43.017457 10.2716826,43.0708799 C10.3571591,43.1243027 10.4252732,43.1977591 10.4800315,43.2925846 C10.5321188,43.3874101 10.5601658,43.5129537 10.5601658,43.670551 L10.5601658,48.2569 Z" id="Fill-131" fill="#B6ACA7"></path>
                <path d="M16.5075946,42.9804617 C16.5957423,42.9684416 16.6825544,42.9564215 16.7680309,42.9484081 C16.8521718,42.9377235 16.9176148,42.9337168 16.9616886,42.9337168 C17.0565141,42.9337168 17.1513396,42.9430658 17.2501718,42.9617638 C17.3476685,42.9804617 17.4371517,43.0165221 17.5186215,43.069945 C17.6014268,43.1233678 17.6695409,43.1981597 17.7229638,43.2916497 C17.7763866,43.3864752 17.803098,43.5133544 17.803098,43.6709517 L17.803098,49.3057235 L16.5075946,49.3057235 L16.5075946,42.9804617 Z" id="Fill-132" fill="#B6ACA7"></path>
                <path d="M22.6122201,42.9335832 C22.8205691,42.9335832 22.9808376,42.9829993 23.0943611,43.080496 C23.2078846,43.1779926 23.2987034,43.3048718 23.368153,43.4624691 L24.8065624,46.8481403 L26.2529852,43.5012007 C26.3411329,43.2995295 26.4519852,43.1539523 26.5842067,43.0658047 C26.7164282,42.977657 26.8673477,42.9335832 27.0369651,42.9335832 C27.1691866,42.9335832 27.2960658,42.9415966 27.4149315,42.9576235 C27.5351329,42.9723148 27.6259517,42.9936839 27.6900591,43.0177242 L28.144153,49.3055899 L26.9140926,49.3055899 L26.6216027,45.1078919 L25.3354483,47.9820396 L24.248294,47.9820396 L22.9995356,45.2307644 L22.7257436,49.3055899 L21.4863342,49.3055899 L21.9497772,43.0177242 C22.012549,42.9990262 22.1060389,42.9803282 22.2289114,42.9616302 C22.3517839,42.9429322 22.4799987,42.9335832 22.6122201,42.9335832" id="Fill-133" fill="#B6ACA7"></path>
                <path d="M35.1840785,48.3045799 C35.487253,48.3045799 35.6929309,48.3740295 35.8037832,48.5129289 C35.9133,48.6504926 35.969394,48.8054188 35.969394,48.9750362 C35.969394,49.0444859 35.9667228,49.103251 35.9640517,49.149996 C35.9613805,49.1980765 35.9560383,49.2501638 35.950696,49.3062577 L31.8558369,49.3062577 L31.8558369,42.971647 L35.7984409,42.971647 C35.8117966,43.0410966 35.8198101,43.0998617 35.8224812,43.1466067 C35.8251523,43.1933517 35.8264879,43.2521168 35.8264879,43.3215664 C35.8264879,43.5419356 35.770394,43.7075463 35.6568705,43.8183987 C35.543347,43.9279154 35.3323268,43.9826738 35.0238101,43.9826738 L33.1606893,43.9826738 L33.1606893,45.5426201 L35.1653805,45.5426201 L35.1653805,46.5549826 L33.1606893,46.5549826 L33.1606893,48.3045799 L35.1840785,48.3045799 Z" id="Fill-134" fill="#B6ACA7"></path>
                <path d="M44.3609168,49.3062577 L43.2644134,49.3062577 L40.5692322,45.1459557 L40.5692322,49.3062577 L39.3298228,49.3062577 L39.3298228,42.990345 C39.3939302,42.9783248 39.4780711,42.9649691 39.5862523,42.952949 C39.693098,42.9395933 39.7999436,42.934251 39.9081248,42.934251 C40.1084604,42.934251 40.2673933,42.9676403 40.3809168,43.0370899 C40.4931047,43.1065396 40.5946081,43.2133852 40.6827557,43.3589624 L43.122843,47.3389624 L43.122843,42.980996 C43.2109906,42.9676403 43.2924604,42.9569557 43.3685879,42.9476067 C43.4433799,42.9382577 43.5034805,42.934251 43.5475544,42.934251 C43.6423799,42.934251 43.7372054,42.9422644 43.8320309,42.962298 C43.9255208,42.980996 44.0123329,43.0170564 44.0911315,43.0704792 C44.1699302,43.123902 44.2353732,43.198694 44.2847893,43.2921839 C44.3355409,43.3870094 44.3609168,43.5138886 44.3609168,43.6714859 L44.3609168,49.3062577 Z" id="Fill-135" fill="#B6ACA7"></path>
                <path d="M49.6334819,44.0304872 L47.6568376,44.0304872 L47.6568376,44.0211383 C47.6448174,43.9450107 47.636804,43.8822389 47.6327973,43.8314872 C47.6301262,43.7807356 47.6287906,43.7219705 47.6287906,43.6525208 C47.6287906,43.4815678 47.6902268,43.3266416 47.8130993,43.1837356 C47.9359718,43.0421651 48.1429852,42.9713799 48.432804,42.9713799 L52.876247,42.9713799 C52.894945,43.1036013 52.9056295,43.2398295 52.9056295,43.3773933 C52.9056295,43.5416685 52.8482,43.6912523 52.7346765,43.8274805 C52.621153,43.9623732 52.4194819,44.0304872 52.1296631,44.0304872 L50.9383342,44.0304872 L50.9383342,49.3059906 L49.6334819,49.3059906 L49.6334819,44.0304872 Z" id="Fill-136" fill="#B6ACA7"></path>
                <path d="M60.1348054,46.1297369 C60.1348054,45.8265624 60.1094295,45.5407503 60.0586779,45.268294 C60.0079262,44.9985087 59.9237852,44.7607772 59.8035839,44.5550993 C59.6847181,44.350757 59.5297919,44.1878174 59.3401409,44.0689517 C59.1518255,43.9487503 58.9181007,43.8886497 58.640302,43.8886497 C58.3504832,43.8886497 58.1060738,43.9487503 57.9084094,44.0689517 C57.7094094,44.1878174 57.5478054,44.350757 57.4262685,44.5550993 C57.3020604,44.7607772 57.2139128,44.9985087 57.1604899,45.268294 C57.1070671,45.5407503 57.0803557,45.8265624 57.0803557,46.1297369 C57.0803557,46.4329114 57.1070671,46.7213946 57.1604899,46.9991933 C57.2139128,47.2769919 57.3007248,47.5227369 57.4209262,47.7364282 C57.5411275,47.951455 57.6987248,48.1210725 57.8937181,48.2479517 C58.0887114,48.3734953 58.3291141,48.4376027 58.612255,48.4376027 C58.895396,48.4376027 59.1344631,48.3734953 59.3307919,48.2479517 C59.5257852,48.1210725 59.682047,47.951455 59.7995772,47.7364282 C59.9157718,47.5227369 59.9999128,47.2769919 60.0546711,46.9991933 C60.108094,46.7213946 60.1348054,46.4329114 60.1348054,46.1297369 M61.4677047,46.1203879 C61.4677047,46.5744819 61.4142819,47.0045356 61.3074362,47.410549 C61.199255,47.817898 61.0296376,48.1731597 60.7972483,48.4790054 C60.5635235,48.784851 60.2643557,49.0252537 59.8984094,49.2028846 C59.5324631,49.3791799 59.0917248,49.4673275 58.5748591,49.4673275 C58.0633356,49.4673275 57.6292752,49.3778443 57.2700067,49.1975423 C56.9094027,49.0185758 56.6169128,48.775502 56.3898658,48.4696564 C56.1628188,48.1638107 55.9972081,47.8098846 55.8943691,47.4065423 C55.7901946,47.0018644 55.7381074,46.577153 55.7381074,46.1297369 C55.7381074,45.6876631 55.7942013,45.268294 55.9077248,44.8716295 C56.0212483,44.4749651 56.1975436,44.1263812 56.4379463,43.8272134 C56.6770134,43.5280456 56.9801879,43.2903141 57.3461342,43.1126832 C57.710745,42.9363879 58.1461409,42.8482403 58.649651,42.8482403 C59.1478188,42.8482403 59.5752013,42.9337168 59.9317987,43.1033342 C60.2870604,43.2729517 60.5795503,43.5053409 60.8052617,43.7991664 C61.0323087,44.0916564 61.199255,44.4362336 61.3074362,44.8342336 C61.4142819,45.230898 61.4677047,45.6596161 61.4677047,46.1203879" id="Fill-137" fill="#B6ACA7"></path>
                <path d="M65.0844295,47.8499517 C65.2607248,47.988851 65.4770872,48.1264148 65.7321812,48.2613074 C65.9872752,48.3975356 66.2917852,48.4643141 66.6443758,48.4643141 C66.7779329,48.4643141 66.9061477,48.4496228 67.0316913,48.4175691 C67.1585705,48.3855154 67.2707584,48.3374349 67.368255,48.2706564 C67.4657517,48.2052134 67.5458859,48.1184013 67.6099933,48.0115557 C67.6714295,47.9047101 67.7034832,47.771153 67.7034832,47.6135557 C67.7034832,47.4506161 67.6687584,47.3117168 67.5993087,47.1981933 C67.5311946,47.0846698 67.4390403,46.9885087 67.3255168,46.9097101 C67.2119933,46.8309114 67.0797718,46.7627973 66.9288523,46.7067034 C66.7779329,46.6492738 66.6230067,46.5931799 66.4654094,46.5357503 C66.2637383,46.4663007 66.059396,46.3915087 65.8550537,46.3087034 C65.6507114,46.2272336 65.4664027,46.1203879 65.3021275,45.9868309 C65.1378523,45.8546094 65.0042953,45.6863275 64.9001208,45.4819852 C64.7959463,45.2763074 64.7438591,45.0172067 64.7438591,44.7020121 C64.7438591,44.3988376 64.8039597,44.1303879 64.9241611,43.8979987 C65.0430268,43.6656094 65.207302,43.4706161 65.415651,43.3156899 C65.624,43.1620993 65.8630671,43.0459047 66.1341879,42.967106 C66.4053087,42.8869718 66.6924564,42.8482403 66.9942953,42.8482403 C67.2026443,42.8482403 67.396302,42.8642671 67.576604,42.8963208 C67.7555705,42.9270389 67.9171745,42.9644349 68.058745,43.0085087 C68.2003154,43.0539181 68.3191812,43.0993275 68.4180134,43.1460725 C68.5155101,43.194153 68.590302,43.2355557 68.6397181,43.2729517 C68.8160134,43.374455 68.9041611,43.5160255 68.9041611,43.6989987 C68.9041611,43.7751262 68.8707718,43.8766295 68.8053289,44.0075154 C68.7385503,44.1357302 68.646396,44.2626094 68.5261946,44.3894886 C68.3685973,44.2626094 68.1655906,44.1437436 67.9171745,44.0302201 C67.6674228,43.9166966 67.4003087,43.8606027 67.1171678,43.8606027 C67.0036443,43.8606027 66.8874497,43.8712872 66.7672483,43.8939919 C66.647047,43.9153611 66.5388658,43.952757 66.4413691,44.0075154 C66.3438725,44.0609383 66.2637383,44.1343946 66.1996309,44.2292201 C66.1381946,44.3227101 66.1061409,44.4402403 66.1061409,44.5791396 C66.1061409,44.7113611 66.1381946,44.8262201 66.1996309,44.9237168 C66.2637383,45.0212134 66.3478792,45.1066899 66.4560604,45.1788107 C66.562906,45.2509315 66.6871141,45.3163745 66.8300201,45.3724685 C66.9715906,45.429898 67.1171678,45.4859919 67.2680872,45.5420859 C67.471094,45.6182134 67.6754362,45.7010188 67.8837852,45.7891664 C68.0907987,45.8773141 68.2804497,45.989502 68.4514027,46.1243946 C68.6210201,46.2606228 68.7599195,46.4302403 68.8667651,46.6345826 C68.9736107,46.8402604 69.0283691,47.0966899 69.0283691,47.4052067 C69.0283691,47.7404349 68.969604,48.0342604 68.8520738,48.2906899 C68.7358792,48.5457839 68.5729396,48.7608107 68.3659262,48.937106 C68.1575772,49.1147369 67.9064899,49.2469584 67.614,49.335106 C67.3201745,49.4232537 67.0009732,49.4673275 66.6537248,49.4673275 C66.1996309,49.4673275 65.8336846,49.4205826 65.5532148,49.3297638 C65.272745,49.238945 65.0684027,49.1561396 64.9428591,49.0800121 C64.8667315,49.0292604 64.8039597,48.9691597 64.7532081,48.8997101 C64.7024564,48.8302604 64.6784161,48.7514617 64.6784161,48.6633141 C64.6784161,48.5564685 64.7211544,48.4269181 64.8066309,48.2759987 C64.8907718,48.1250792 64.9842617,47.9821732 65.0844295,47.8499517" id="Fill-138" fill="#B6ACA7"></path>
                <path d="M80.8941114,46.0540101 C80.8941114,45.7575134 80.8660644,45.4797148 80.8099705,45.2219497 C80.7525409,44.9641846 80.6550443,44.7384732 80.516145,44.546151 C80.3772456,44.3538289 80.1902658,44.2029094 79.9525342,44.092057 C79.7174738,43.9812047 79.4196416,43.9264463 79.0590376,43.9264463 C78.8760644,43.9264463 78.687749,43.9357953 78.4927557,43.9544933 L78.4927557,48.3137953 L79.0122926,48.3137953 C79.3849168,48.3137953 79.692098,48.2590369 79.9338362,48.1481846 C80.1769101,48.0373322 80.3692322,47.8837416 80.5108027,47.6847416 C80.6523732,47.4857416 80.7525409,47.2493456 80.8099705,46.971547 C80.8660644,46.6937483 80.8941114,46.3879027 80.8941114,46.0540101 M82.2176617,46.0353121 C82.2176617,46.4827282 82.1575611,46.9047685 82.0386953,47.3014329 C81.918494,47.6980973 81.7355208,48.0453456 81.4897758,48.3418423 C81.2440309,48.6383389 80.9301718,48.8733993 80.5495342,49.0470235 C80.1675611,49.2206477 79.7188094,49.3061242 79.2006081,49.3061242 L77.1879034,49.3061242 L77.1879034,43.0276074 C77.5912456,42.9781913 77.9358228,42.9461376 78.2229705,42.9341174 C78.5087826,42.9207617 78.7571987,42.9140839 78.9655477,42.9140839 C79.5959369,42.9140839 80.118145,42.9982248 80.534843,43.1651711 C80.9502054,43.3321174 81.284098,43.5578289 81.5325141,43.8409698 C81.7809302,44.1254463 81.9572255,44.4553322 82.0627356,44.8332987 C82.1655745,45.2126007 82.2176617,45.6119362 82.2176617,46.0353121" id="Fill-139" fill="#B6ACA7"></path>
                <path d="M89.1502074,48.3045799 C89.4533819,48.3045799 89.6590597,48.3740295 89.7685765,48.5129289 C89.8794289,48.6504926 89.9341872,48.8054188 89.9341872,48.9750362 C89.9341872,49.0444859 89.9328517,49.103251 89.9301805,49.149996 C89.9275094,49.1980765 89.9221671,49.2501638 89.9154893,49.3062577 L85.8219658,49.3062577 L85.8219658,42.971647 L89.7645698,42.971647 C89.7765899,43.0410966 89.7846034,43.0998617 89.7886101,43.1466067 C89.7912812,43.1933517 89.7926168,43.2521168 89.7926168,43.3215664 C89.7926168,43.5419356 89.7365228,43.7075463 89.6229993,43.8183987 C89.5094758,43.9279154 89.2984557,43.9826738 88.9886034,43.9826738 L87.1268181,43.9826738 L87.1268181,45.5426201 L89.1315094,45.5426201 L89.1315094,46.5549826 L87.1268181,46.5549826 L87.1268181,48.3045799 L89.1502074,48.3045799 Z" id="Fill-140" fill="#B6ACA7"></path>
                <path d="M100.288598,44.115296 L99.427155,46.8104772 L101.120658,46.8104772 L100.288598,44.115296 Z M101.904638,49.3066584 L101.366403,47.7560611 L99.1814101,47.7560611 L98.6618732,49.3066584 L97.3757188,49.3066584 L99.5700611,43.0655376 C99.6461886,43.0348195 99.7516987,43.0041013 99.8865913,42.9760544 C100.021484,42.9480074 100.168397,42.9333161 100.325994,42.9333161 C100.395444,42.9333161 100.472907,42.939994 100.558383,42.9520141 C100.64386,42.9653698 100.726665,42.9920812 100.808135,43.0321483 C100.89094,43.073551 100.967068,43.1323161 101.040524,43.2071081 C101.112645,43.2832356 101.17141,43.3874101 101.215484,43.5196315 L103.248222,49.3066584 L101.904638,49.3066584 Z" id="Fill-141" fill="#B6ACA7"></path>
                <path d="M107.848862,48.2569 L109.693285,48.2569 C109.844204,48.2569 109.969748,48.275598 110.071251,48.312994 C110.171419,48.3517255 110.250217,48.4011416 110.307647,48.465249 C110.363741,48.5280208 110.403808,48.6001416 110.425177,48.682947 C110.447882,48.7644168 110.458566,48.8458866 110.458566,48.9286919 C110.458566,48.9914638 110.457231,49.0662557 110.45456,49.1557389 C110.450553,49.2438866 110.446546,49.2933027 110.439868,49.3066584 L106.544009,49.3066584 L106.544009,42.9800611 C106.632157,42.9680409 106.718969,42.9573564 106.804446,42.9480074 C106.889922,42.9386584 106.95403,42.9333161 106.998103,42.9333161 C107.092929,42.9333161 107.187754,42.9426651 107.286587,42.9613631 C107.384083,42.9800611 107.476238,43.017457 107.560379,43.0708799 C107.645855,43.1243027 107.715305,43.1977591 107.768728,43.2925846 C107.82215,43.3874101 107.848862,43.5129537 107.848862,43.670551 L107.848862,48.2569 Z" id="Fill-142" fill="#B6ACA7"></path>
                <path d="M114.514293,44.0304872 L112.538985,44.0304872 L112.538985,44.0211383 C112.525629,43.9450107 112.517615,43.8822389 112.514944,43.8314872 C112.510938,43.7807356 112.509602,43.7219705 112.509602,43.6525208 C112.509602,43.4815678 112.571038,43.3266416 112.693911,43.1837356 C112.816783,43.0421651 113.023797,42.9713799 113.313615,42.9713799 L117.758394,42.9713799 C117.777092,43.1036013 117.786441,43.2398295 117.786441,43.3773933 C117.786441,43.5416685 117.729011,43.6912523 117.615488,43.8274805 C117.501964,43.9623732 117.300293,44.0304872 117.010474,44.0304872 L115.819146,44.0304872 L115.819146,49.3059906 L114.514293,49.3059906 L114.514293,44.0304872 Z" id="Fill-143" fill="#B6ACA7"></path>
                <path d="M122.697868,44.115296 L121.83776,46.8104772 L123.531264,46.8104772 L122.697868,44.115296 Z M124.313908,49.3066584 L123.775673,47.7560611 L121.592015,47.7560611 L121.072479,49.3066584 L119.784989,49.3066584 L121.979331,43.0655376 C122.055458,43.0348195 122.160968,43.0041013 122.295861,42.9760544 C122.432089,42.9480074 122.579002,42.9333161 122.735264,42.9333161 C122.806049,42.9333161 122.882177,42.939994 122.967653,42.9520141 C123.05313,42.9653698 123.135935,42.9920812 123.21874,43.0321483 C123.30021,43.073551 123.377673,43.1323161 123.449794,43.2071081 C123.521915,43.2832356 123.58068,43.3874101 123.624754,43.5196315 L125.657492,49.3066584 L124.313908,49.3066584 Z" id="Fill-144" fill="#B6ACA7"></path>
                <path d="M135.524687,48.2478181 C135.325687,48.1209389 135.166754,47.9513215 135.046552,47.7362946 C134.927687,47.5226034 134.840874,47.2768584 134.787452,46.9990597 C134.734029,46.7212611 134.707317,46.4327779 134.707317,46.1296034 C134.707317,45.8277644 134.734029,45.5406168 134.787452,45.269496 C134.840874,44.9983752 134.929022,44.7593081 135.051895,44.5549658 C135.174767,44.3506235 135.335036,44.1876839 135.534036,44.0688181 C135.733036,43.9486168 135.980116,43.8885161 136.276613,43.8885161 C136.554411,43.8885161 136.786801,43.9486168 136.975116,44.0688181 C137.164767,44.1876839 137.319693,44.3506235 137.439895,44.5549658 C137.55876,44.7593081 137.644237,44.9983752 137.694989,45.269496 C137.74574,45.5406168 137.771116,45.8277644 137.771116,46.1296034 C137.771116,46.4327779 137.743069,46.7212611 137.689646,46.9990597 C137.636223,47.2768584 137.550747,47.5226034 137.434552,47.7362946 C137.387807,47.8244423 137.305002,47.8725228 137.244901,47.9446436 C137.166103,47.8952275 137.083297,47.8418047 137.012512,47.7990664 C136.888304,47.7229389 136.746734,47.685543 136.582458,47.685543 C136.462257,47.685543 136.356747,47.7149255 136.265928,47.7750262 C136.173774,47.8351268 136.102989,47.9032409 136.052237,47.9780329 C136.121687,48.1102544 136.225861,48.2504893 136.36476,48.4000732 C136.366096,48.4014087 136.368767,48.4027443 136.370103,48.4040799 C136.324693,48.4080866 136.296646,48.4374691 136.248566,48.4374691 C135.964089,48.4374691 135.722351,48.3733617 135.524687,48.2478181 M138.422874,48.4788718 C138.656599,48.1730262 138.827552,47.8177644 138.938405,47.4104154 C139.047921,47.004402 139.104015,46.5743483 139.104015,46.1202544 C139.104015,45.6608181 139.050593,45.2307644 138.942411,44.8341 C138.835566,44.4361 138.668619,44.0915228 138.441572,43.7990329 C138.214526,43.5052074 137.923371,43.2728181 137.566774,43.1032007 C137.210177,42.9335832 136.78413,42.8494423 136.285962,42.8494423 C135.781116,42.8494423 135.347056,42.9362544 134.981109,43.1125497 C134.615163,43.2901805 134.311989,43.5279121 134.072921,43.8270799 C133.833854,44.1275832 133.656223,44.4748315 133.538693,44.871496 C133.422499,45.269496 133.363734,45.6875295 133.363734,46.1296034 C133.363734,46.5770195 133.415821,47.0017309 133.519995,47.4064087 C133.62417,47.809751 133.791116,48.1650128 134.020834,48.4695228 C134.250552,48.7753685 134.545713,49.0184423 134.904982,49.1974087 C135.26425,49.3777107 135.699646,49.467194 136.209834,49.467194 C136.718687,49.467194 137.152747,49.3790463 137.517358,49.2040866 C137.630881,49.2655228 137.735056,49.3189456 137.799163,49.3443215 C138.000834,49.4257913 138.198499,49.467194 138.394828,49.467194 C138.633895,49.467194 138.81019,49.3950732 138.923713,49.249496 C139.037237,49.1052544 139.097338,48.9182745 139.104015,48.6925631 C138.788821,48.6792074 138.532391,48.6324624 138.334727,48.5509926 C138.358767,48.5216101 138.398834,48.5095899 138.422874,48.4788718" id="Fill-145" fill="#B6ACA7"></path>
                <path d="M147.606123,46.7537154 C147.606123,46.8792591 147.602117,47.0048027 147.596774,47.1316819 C147.590097,47.2572255 147.580748,47.3867758 147.568728,47.5189973 C147.543352,47.7834403 147.477909,48.0345275 147.373734,48.2709235 C147.270895,48.5073195 147.11864,48.7129973 146.920976,48.8852859 C146.721976,49.0602456 146.47356,49.1964738 146.178399,49.2966416 C145.881902,49.398145 145.531983,49.4488966 145.12864,49.4488966 C144.71862,49.4488966 144.372707,49.4034872 144.088231,49.3153396 C143.80509,49.2285275 143.568694,49.1003128 143.379043,48.9333664 C143.189392,48.7664201 143.04515,48.5620779 142.943647,48.3176685 C142.843479,48.0759302 142.77403,47.796796 142.736634,47.4816013 C142.723278,47.3680779 142.713929,47.2518832 142.708587,47.1316819 C142.701909,47.0114805 142.697902,46.8859369 142.697902,46.7537154 L142.697902,42.9807289 C142.787385,42.9687087 142.874197,42.9566886 142.958338,42.9473396 C143.043815,42.9379906 143.107922,42.9339839 143.151996,42.9339839 C143.246821,42.9339839 143.342983,42.9419973 143.440479,42.9620309 C143.537976,42.9807289 143.627459,43.0167893 143.710264,43.0702121 C143.791734,43.1236349 143.859848,43.1984268 143.913271,43.2919168 C143.966694,43.3867423 143.993405,43.5136215 143.993405,43.6712188 L143.993405,46.8378564 C143.993405,47.0649034 144.008097,47.2705812 144.036144,47.4522188 C144.065526,47.6365275 144.12162,47.7914537 144.207097,47.9223396 C144.292573,48.0505544 144.410103,48.1507221 144.561023,48.2241785 C144.711942,48.2962993 144.910942,48.3323597 145.156687,48.3323597 C145.585405,48.3323597 145.884573,48.2081517 146.055526,47.9597356 C146.225144,47.7099839 146.31062,47.3627356 146.31062,46.9139839 L146.31062,42.9807289 C146.398768,42.9687087 146.48558,42.9566886 146.571056,42.9473396 C146.656533,42.9379906 146.72064,42.9339839 146.764714,42.9339839 C146.858204,42.9339839 146.954365,42.9419973 147.053197,42.9620309 C147.150694,42.9807289 147.240177,43.0167893 147.322983,43.0702121 C147.404452,43.1236349 147.471231,43.1984268 147.524654,43.2919168 C147.579412,43.3867423 147.606123,43.5136215 147.606123,43.6712188 L147.606123,46.7537154 Z" id="Fill-146" fill="#B6ACA7"></path>
                <path d="M153.526841,44.115296 L152.665398,46.8104772 L154.358901,46.8104772 L153.526841,44.115296 Z M155.142881,49.3066584 L154.604646,47.7560611 L152.419653,47.7560611 L151.900116,49.3066584 L150.613962,49.3066584 L152.808304,43.0655376 C152.884432,43.0348195 152.989942,43.0041013 153.124834,42.9760544 C153.259727,42.9480074 153.40664,42.9333161 153.564237,42.9333161 C153.633687,42.9333161 153.71115,42.939994 153.796626,42.9520141 C153.882103,42.9653698 153.964908,42.9920812 154.047713,43.0321483 C154.129183,43.073551 154.206646,43.1323161 154.278767,43.2071081 C154.350888,43.2832356 154.409653,43.3874101 154.453727,43.5196315 L156.486465,49.3066584 L155.142881,49.3066584 Z" id="Fill-147" fill="#B6ACA7"></path>
                <path d="M161.087105,48.2569 L162.931528,48.2569 C163.082447,48.2569 163.207991,48.275598 163.309494,48.312994 C163.409662,48.3517255 163.48846,48.4011416 163.54589,48.465249 C163.601984,48.5280208 163.642051,48.6001416 163.66342,48.682947 C163.686125,48.7644168 163.696809,48.8458866 163.696809,48.9286919 C163.696809,48.9914638 163.695474,49.0662557 163.692803,49.1557389 C163.688796,49.2438866 163.684789,49.2933027 163.678111,49.3066584 L159.782252,49.3066584 L159.782252,42.9800611 C159.8704,42.9680409 159.957212,42.9573564 160.042689,42.9480074 C160.128165,42.9386584 160.192272,42.9333161 160.236346,42.9333161 C160.331172,42.9333161 160.427333,42.9426651 160.52483,42.9613631 C160.622326,42.9800611 160.714481,43.017457 160.798621,43.0708799 C160.884098,43.1243027 160.953548,43.1977591 161.00697,43.2925846 C161.060393,43.3874101 161.087105,43.5129537 161.087105,43.670551 L161.087105,48.2569 Z" id="Fill-148" fill="#B6ACA7"></path>
                <path d="M167.034534,42.9804617 C167.122681,42.9684416 167.209493,42.9564215 167.29497,42.9484081 C167.380446,42.9377235 167.444554,42.9337168 167.488628,42.9337168 C167.583453,42.9337168 167.679614,42.9430658 167.777111,42.9617638 C167.874607,42.9804617 167.965426,43.0165221 168.046896,43.069945 C168.128366,43.1233678 168.19648,43.1981597 168.249903,43.2916497 C168.303326,43.3864752 168.330037,43.5133544 168.330037,43.6709517 L168.330037,49.3057235 L167.034534,49.3057235 L167.034534,42.9804617 Z" id="Fill-149" fill="#B6ACA7"></path>
                <path d="M175.898314,46.0540101 C175.898314,45.7575134 175.870267,45.4797148 175.814173,45.2219497 C175.756744,44.9641846 175.659247,44.7384732 175.520348,44.546151 C175.381448,44.3538289 175.194468,44.2029094 174.958072,44.092057 C174.721677,43.9812047 174.423844,43.9264463 174.064576,43.9264463 C173.881603,43.9264463 173.693287,43.9357953 173.496958,43.9544933 L173.496958,48.3137953 L174.016495,48.3137953 C174.389119,48.3137953 174.696301,48.2590369 174.939374,48.1481846 C175.181113,48.0373322 175.373435,47.8837416 175.515005,47.6847416 C175.657911,47.4857416 175.756744,47.2493456 175.814173,46.971547 C175.870267,46.6937483 175.898314,46.3879027 175.898314,46.0540101 M177.2232,46.0353121 C177.2232,46.4827282 177.161764,46.9047685 177.042898,47.3014329 C176.922697,47.6980973 176.739723,48.0453456 176.493979,48.3418423 C176.248234,48.6383389 175.934374,48.8733993 175.553737,49.0470235 C175.171764,49.2206477 174.723012,49.3061242 174.206146,49.3061242 L172.192106,49.3061242 L172.192106,43.0276074 C172.595448,42.9781913 172.941361,42.9461376 173.227173,42.9341174 C173.514321,42.9207617 173.761401,42.9140839 173.96975,42.9140839 C174.60014,42.9140839 175.123683,42.9982248 175.539046,43.1651711 C175.954408,43.3321174 176.288301,43.5578289 176.536717,43.8409698 C176.786468,44.1254463 176.962764,44.4553322 177.066938,44.8332987 C177.171113,45.2126007 177.2232,45.6119362 177.2232,46.0353121" id="Fill-150" fill="#B6ACA7"></path>
                <path d="M182.89243,44.115296 L182.032322,46.8104772 L183.725826,46.8104772 L182.89243,44.115296 Z M184.509805,49.3066584 L183.97157,47.7560611 L181.786577,47.7560611 L181.26704,49.3066584 L179.980886,49.3066584 L182.173893,43.0655376 C182.25002,43.0348195 182.35553,43.0041013 182.490423,42.9760544 C182.626651,42.9480074 182.773564,42.9333161 182.929826,42.9333161 C183.000611,42.9333161 183.076738,42.939994 183.162215,42.9520141 C183.247691,42.9653698 183.330497,42.9920812 183.413302,43.0321483 C183.494772,43.073551 183.572235,43.1323161 183.644356,43.2071081 C183.716477,43.2832356 183.775242,43.3874101 183.819315,43.5196315 L185.852054,49.3066584 L184.509805,49.3066584 Z" id="Fill-151" fill="#B6ACA7"></path>
                <path d="M192.855117,46.0540101 C192.855117,45.7575134 192.82707,45.4797148 192.770977,45.2219497 C192.713547,44.9641846 192.61605,44.7384732 192.477151,44.546151 C192.338252,44.3538289 192.151272,44.2029094 191.914876,44.092057 C191.67848,43.9812047 191.380648,43.9264463 191.021379,43.9264463 C190.838406,43.9264463 190.648755,43.9357953 190.453762,43.9544933 L190.453762,48.3137953 L190.973299,48.3137953 C191.345923,48.3137953 191.653104,48.2590369 191.896178,48.1481846 C192.137916,48.0373322 192.330238,47.8837416 192.471809,47.6847416 C192.614715,47.4857416 192.713547,47.2493456 192.770977,46.971547 C192.82707,46.6937483 192.855117,46.3879027 192.855117,46.0540101 M194.178668,46.0353121 C194.178668,46.4827282 194.118567,46.9047685 193.999701,47.3014329 C193.8795,47.6980973 193.696527,48.0453456 193.450782,48.3418423 C193.205037,48.6383389 192.891178,48.8733993 192.51054,49.0470235 C192.128567,49.2206477 191.679815,49.3061242 191.16295,49.3061242 L189.148909,49.3061242 L189.148909,43.0276074 C189.552252,42.9781913 189.896829,42.9461376 190.183977,42.9341174 C190.471124,42.9207617 190.718205,42.9140839 190.926554,42.9140839 C191.556943,42.9140839 192.079151,42.9982248 192.495849,43.1651711 C192.911211,43.3321174 193.245104,43.5578289 193.49352,43.8409698 C193.743272,44.1254463 193.919567,44.4553322 194.023742,44.8332987 C194.127916,45.2126007 194.178668,45.6119362 194.178668,46.0353121" id="Fill-152" fill="#B6ACA7"></path>
                <path d="M201.11108,48.3045799 C201.412919,48.3045799 201.619932,48.3740295 201.730785,48.5129289 C201.840301,48.6504926 201.89506,48.8054188 201.89506,48.9750362 C201.89506,49.0444859 201.893724,49.103251 201.891053,49.149996 C201.888382,49.1980765 201.88304,49.2501638 201.876362,49.3062577 L197.782838,49.3062577 L197.782838,42.971647 L201.725442,42.971647 C201.738798,43.0410966 201.745476,43.0998617 201.749483,43.1466067 C201.752154,43.1933517 201.753489,43.2521168 201.753489,43.3215664 C201.753489,43.5419356 201.69606,43.7075463 201.583872,43.8183987 C201.470348,43.9279154 201.259328,43.9826738 200.949476,43.9826738 L199.087691,43.9826738 L199.087691,45.5426201 L201.092382,45.5426201 L201.092382,46.5549826 L199.087691,46.5549826 L199.087691,48.3045799 L201.11108,48.3045799 Z" id="Fill-153" fill="#B6ACA7"></path>
            </g>
        </g>
    </g>
</svg>