<?xml version="1.0" encoding="utf-8"?>
<!-- Generator: Adobe Illustrator 21.0.2, SVG Export Plug-In . SVG Version: 6.00 Build 0)  -->
<svg version="1.1" id="Layer_1" xmlns="http://www.w3.org/2000/svg" xmlns:xlink="http://www.w3.org/1999/xlink" x="0px" y="0px"
	 viewBox="0 0 512 512" style="enable-background:new 0 0 512 512;" xml:space="preserve">
<style type="text/css">
	.st0{fill:#F4F3DC;}
	.st1{fill:#ECF4DF;}
	.st2{opacity:0.2;fill:#65C8D0;}
	.st3{fill:#FFFFFF;}
	.st4{fill:#FFE8B6;}
	.st5{opacity:0.6;fill:#C69C6D;}
	.st6{fill:#C69C6D;}
	.st7{fill:#FFC400;}
	.st8{fill:#FFDC69;}
	.st9{fill:#FA5565;}
	.st10{opacity:0.3;fill:#FFC400;stroke:#FFE8B6;stroke-miterlimit:10;}
	.st11{fill:#1B9B9B;}
	.st12{fill:#F5F7FA;}
	.st13{fill:#65C8D0;}
	.st14{fill:#009245;}
	.st15{fill:#F7931E;}
	.st16{fill:#FBB03B;}
	.st17{fill:#E5E8EC;stroke:#484F59;stroke-width:16;stroke-miterlimit:10;}
	.st18{fill:#F7F8FC;}
	.st19{fill:#FFC400;stroke:#484F59;stroke-width:16;stroke-miterlimit:10;}
	.st20{fill:none;stroke:#484F59;stroke-width:16;stroke-miterlimit:10;}
	.st21{fill:none;stroke:#484F59;stroke-width:14;stroke-miterlimit:10;}
	.st22{fill:none;stroke:#484F59;stroke-width:12;stroke-miterlimit:10;}
	.st23{fill:#1B9B9B;stroke:#484F59;stroke-width:16;stroke-miterlimit:10;}
	.st24{fill:#484F59;stroke:#FFFFFF;stroke-width:12;stroke-miterlimit:10;}
	.st25{fill:#FFFFFF;stroke:#484F59;stroke-width:16;stroke-miterlimit:10;}
	.st26{fill:#A67C52;}
	.st27{fill:#484F59;stroke:#FFFFFF;stroke-width:8;stroke-miterlimit:10;}
	.st28{fill:#8CC63F;}
	.st29{fill:#464F57;}
	.st30{fill:#BDCCD4;}
	.st31{fill:#484F59;}
	.st32{fill:#29ABE2;}
	.st33{fill:#FF7BAC;}
	.st34{opacity:0.5;fill:#65C8D0;}
	.st35{opacity:0.3;fill:#FA5565;}
	.st36{fill:#CCCCCC;}
	.st37{opacity:0.6;fill:#FA5565;}
	.st38{fill:#CAE4EA;}
	.st39{opacity:0.7;fill:#29ABE2;}
	.st40{fill:#D3CCC7;}
	.st41{fill:#22B573;}
	.st42{opacity:0.2;fill:#C69C6D;}
	.st43{opacity:0.8;fill:#65C8D0;}
	.st44{opacity:0.6;fill:#65C8D0;}
	.st45{fill:#E6E6E6;}
	.st46{fill:#14597F;}
	.st47{fill:#0071BC;}
	.st48{fill:#484F59;stroke:#FFFFFF;stroke-width:2;stroke-miterlimit:10;}
	.st49{fill:#484F59;stroke:#FFFFFF;stroke-width:4;stroke-miterlimit:10;}
	.st50{fill:none;stroke:#484F59;stroke-width:4;stroke-linecap:round;stroke-linejoin:round;}
	.st51{fill:none;stroke:#484F59;stroke-width:4;stroke-linecap:round;stroke-linejoin:round;stroke-dasharray:12.973,12.973;}
	.st52{fill:none;stroke:#484F59;stroke-width:4;stroke-linecap:round;stroke-linejoin:round;stroke-dasharray:10.7388,10.7388;}
	.st53{fill:none;stroke:#464F57;stroke-width:7;stroke-linecap:round;stroke-miterlimit:10;}
	.st54{opacity:0.6;fill:#FFDC69;}
	.st55{fill:#484F59;stroke:#FFFFFF;stroke-width:9;stroke-miterlimit:10;}
	.st56{fill:#484F59;stroke:#F4F3DC;stroke-width:6;stroke-miterlimit:10;}
</style>
<path class="st12" d="M460.6,432.3H51.4c-19.9,0-36.1-16.2-36.1-36.1V117.1C15.3,97.2,31.4,81,51.4,81h409.3
	c19.9,0,36.1,16.2,36.1,36.1v279.1C496.7,416.1,480.6,432.3,460.6,432.3z"/>
<g>
	<path class="st31" d="M431.2,362.1V230.4H475c6.1,0,11.1-4.9,11.1-11.1c0-6.1-5-11.1-11.1-11.1h-43.8v-60.1c0-6.1-5-11.1-11.1-11.1
		c-6.1,0-11.1,5-11.1,11.1v60.1h-27.9v-60.1c0-6.1-4.9-11.1-11.1-11.1c-6.1,0-11.1,5-11.1,11.1v60.1h-29v-60.1
		c0-6.1-4.9-11.1-11.1-11.1c-6.1,0-11.1,5-11.1,11.1v60.1h-15.3v-60.1c0-6.1-5-11.1-11.1-11.1c-6.1,0-11.1,5-11.1,11.1v60.1H249
		v-60.1c0-6.1-4.9-11.1-11.1-11.1c-6.1,0-11.1,5-11.1,11.1v60.1h-15.7v-60.1c0-6.1-5-11.1-11.1-11.1c-6.1,0-11.1,5-11.1,11.1v60.1
		h-21.6v-60.1c0-6.1-5-11.1-11.1-11.1c-6.1,0-11.1,5-11.1,11.1v60.1h-17.4v-60.1c0-6.1-5-11.1-11.1-11.1c-6.1,0-11.1,5-11.1,11.1
		v60.1H94.1v-60.1c0-6.1-5-11.1-11.1-11.1c-6.1,0-11.1,5-11.1,11.1v60.1H27.1c-6.1,0-11.1,4.9-11.1,11.1c0,6.1,4.9,11.1,11.1,11.1
		h44.9v131.7c0,6.1,5,11.1,11.1,11.1c6.1,0,11.1-5,11.1-11.1V230.4h11.7v77.8c0,6.1,5,11.1,11.1,11.1c6.1,0,11.1-4.9,11.1-11.1
		v-77.8h17.4v77.8c0,6.1,4.9,11.1,11.1,11.1c6.1,0,11.1-4.9,11.1-11.1v-77.8H189v77.8c0,6.1,5,11.1,11.1,11.1
		c6.1,0,11.1-4.9,11.1-11.1v-77.8h15.7v77.8c0,6.1,5,11.1,11.1,11.1c6.1,0,11.1-4.9,11.1-11.1v-77.8h21.5v77.8
		c0,6.1,5,11.1,11.1,11.1c6.1,0,11.1-4.9,11.1-11.1v-77.8h15.3v77.8c0,6.1,5,11.1,11.1,11.1c6.1,0,11.1-4.9,11.1-11.1v-77.8h29v77.8
		c0,6.1,5,11.1,11.1,11.1c6.1,0,11.1-4.9,11.1-11.1v-77.8H409v131.7c0,6.1,5,11.1,11.1,11.1C426.2,373.2,431.2,368.2,431.2,362.1
		L431.2,362.1z M431.2,362.1"/>
	<path class="st31" d="M20.6,160.7c6.1,0,11.1-5,11.1-11.1v-45.1c0-5.4,4.4-9.9,9.9-9.9h36.6c6.1,0,11.1-5,11.1-11.1
		c0-6.1-4.9-11.1-11.1-11.1H41.5c-17.6,0-32,14.3-32,32v45.1C9.5,155.8,14.5,160.7,20.6,160.7L20.6,160.7z M20.6,160.7"/>
	<path class="st31" d="M78.1,417.3H41.5c-5.4,0-9.9-4.4-9.9-9.9v-45.1c0-6.1-5-11.1-11.1-11.1c-6.1,0-11.1,5-11.1,11.1v45.1
		c0,17.6,14.3,32,32,32h36.6c6.1,0,11.1-5,11.1-11.1C89.2,422.3,84.2,417.3,78.1,417.3L78.1,417.3z M78.1,417.3"/>
	<path class="st31" d="M470.5,72.6h-36.6c-6.1,0-11.1,5-11.1,11.1c0,6.1,5,11.1,11.1,11.1h36.6c5.4,0,9.9,4.4,9.9,9.9v45.1
		c0,6.1,5,11.1,11.1,11.1c6.1,0,11.1-5,11.1-11.1v-45.1C502.5,86.9,488.1,72.6,470.5,72.6L470.5,72.6z M470.5,72.6"/>
	<path class="st31" d="M491.4,351.3c-6.1,0-11.1,5-11.1,11.1v45.1c0,5.4-4.4,9.9-9.9,9.9h-36.6c-6.1,0-11.1,5-11.1,11.1
		c0,6.1,5,11.1,11.1,11.1h36.6c17.6,0,32-14.3,32-32v-45.1C502.5,356.2,497.5,351.3,491.4,351.3L491.4,351.3z M491.4,351.3"/>
	<path class="st31" d="M370.8,353.1H121.2c-6.1,0-11.1,5-11.1,11.1c0,6.1,5,11.1,11.1,11.1h249.6c6.1,0,11.1-5,11.1-11.1
		C381.9,358,376.9,353.1,370.8,353.1L370.8,353.1z M370.8,353.1"/>
</g>
</svg>
